<svg
    width="19"
    height="18"
    viewBox="0 0 19 18"
    fill="none"
    xmlns="http://www.w3.org/2000/svg"
>
    <g clip-path="url(#clip0_6_65)">
        <path
            d="M7.24712 16.3333C7.98473 16.3333 8.58268 15.7364 8.58268 15C8.58268 14.2636 7.98473 13.6667 7.24712 13.6667C6.50951 13.6667 5.91156 14.2636 5.91156 15C5.91156 15.7364 6.50951 16.3333 7.24712 16.3333Z"
            stroke="white"
            stroke-width="1.8"
            stroke-linecap="round"
            stroke-linejoin="round"
        />
        <path
            d="M15.2605 16.3333C15.9981 16.3333 16.5961 15.7364 16.5961 15C16.5961 14.2636 15.9981 13.6667 15.2605 13.6667C14.5229 13.6667 13.9249 14.2636 13.9249 15C13.9249 15.7364 14.5229 16.3333 15.2605 16.3333Z"
            stroke="white"
            stroke-width="1.8"
            stroke-linecap="round"
            stroke-linejoin="round"
        />
        <path
            d="M5.69122 4.99999H17.2639L16.142 10.5933C16.0809 10.9003 15.9136 11.176 15.6695 11.3722C15.4253 11.5684 15.1198 11.6727 14.8064 11.6667H7.74798C7.4219 11.6694 7.10606 11.553 6.86004 11.3393C6.61402 11.1256 6.4548 10.8295 6.41242 10.5067L5.3974 2.82666C5.3553 2.50615 5.19802 2.21182 4.95479 1.99844C4.71158 1.78505 4.39899 1.66715 4.0752 1.66666H2.57269"
            stroke="white"
            stroke-width="1.8"
            stroke-linecap="round"
            stroke-linejoin="round"
        />
    </g>
    <defs>
        <clipPath id="clip0_6_65">
            <rect
                width="18.0301"
                height="18"
                fill="white"
                transform="translate(0.903198)"
            />
        </clipPath>
    </defs>
</svg>